<svg xmlns="http://www.w3.org/2000/svg" >
  <defs>
    <symbol id="brand" viewBox="0 0 512 512">
      <path d="M129.336 257.21L204.501 61.2097C205.243 59.2763 207.099 58 209.17 58H295.715C297.825 58 299.708 59.3245 300.421 61.3104L438.83 446.81C440 450.068 437.586 453.5 434.124 453.5H381.134C379.081 453.5 377.237 452.245 376.483 450.336L249.478 116.47C248.799 114.75 246.349 114.794 245.732 116.537L189.912 260.669C189.205 262.665 187.316 264 185.198 264H134.005C130.498 264 128.081 260.484 129.336 257.21Z" fill="currentColor"/>
      <path d="M330.156 320.219L313.563 353.719C312.719 355.422 310.983 356.5 309.082 356.5H167.242C163.533 356.5 161.116 352.604 162.762 349.281L179.355 315.781C180.199 314.078 181.935 313 183.836 313H325.676C329.384 313 331.802 316.896 330.156 320.219Z" fill="currentColor"/>
    </symbol>
  </defs>
</svg>
