<?xml version="1.0" encoding="UTF-8"?>
<svg data-name="Layer 2" viewBox="0 0 121.09 126.08" xmlns="http://www.w3.org/2000/svg">
<defs>
<style>.cls-1 {
        stroke: #1d2d68;
        stroke-width: 4.85px;
      }

      .cls-1, .cls-2 {
        fill: #314cb0;
      }

      .cls-3 {
        fill: #f70;
      }

      .cls-3, .cls-2, .cls-4 {
        stroke-width: 0px;
      }

      .cls-4 {
        fill: #fff;
      }</style>
</defs>
<path fill="#314cb0" stroke="#1d2d68" stroke-width="4.85px" d="M3.35,11.93h114.39c.51,0,.93.43.93.97v109.8c0,.54-.41.97-.93.97H3.35c-.51,0-.93-.43-.93-.97V12.89c0-.54.41-.97.93-.97Z"/>
<path fill="#fff" d="M31.94,58.21l16.93-21.41c3.46-4.36,5.19-7.63,5.19-9.79,0-.79-.1-1.42-.29-1.89h29.55c-2.24,1.26-5.05,3.91-8.43,7.96-.9,1.06-2.5,3.01-4.78,5.84l-22.18,27.6,26.48,36.45c1.61,2.2,3.66,4.68,6.13,7.43.67.71,1.63,1.55,2.89,2.54h-30.32c.24-.9.35-1.71.35-2.42,0-2.16-1.49-5.29-4.48-9.38l-17.05-23.24v23.53c0,5.47,1.1,9.3,3.3,11.5H7.52c1.53-1.53,2.52-3.28,2.95-5.25.24-1.1.35-3.17.35-6.19V36.56c0-3.03-.12-5.09-.35-6.19-.43-1.97-1.42-3.72-2.95-5.25h27.72c-2.2,2.2-3.3,6.02-3.3,11.44v21.65"/>
<path class="cls-4" d="M111.15,48.42v54.14c0,2.83.08,4.68.24,5.54.31,1.77,1.14,3.38,2.48,4.84h-25.95c1.34-1.45,2.16-3.07,2.48-4.84.16-.87.24-2.71.24-5.54v-43.88c0-2.83-.08-4.66-.24-5.49-.31-1.73-1.12-3.32-2.42-4.78h23.18M100.89,17.57c3.26,0,6.04,1.16,8.32,3.48,2.32,2.28,3.48,5.05,3.48,8.32,0,3.34-1.14,6.15-3.42,8.43-2.24,2.24-5.03,3.36-8.38,3.36-3.26,0-6.06-1.14-8.38-3.42-2.28-2.32-3.42-5.11-3.42-8.38,0-3.34,1.12-6.13,3.36-8.38,2.28-2.28,5.09-3.42,8.43-3.42"/>
<path class="cls-2" d="m86.96 16.6h28.32v27.03h-28.32v-27.03z"/>
<path class="cls-3" d="M112.84,11.95c0,6.6-5.37,11.95-11.99,11.95s-11.99-5.35-11.99-11.95S94.23,0,100.85,0s11.99,5.35,11.99,11.95Z"/>
</svg>
