<svg width="52" height="52" viewBox="0 0 43 50" fill="none" xmlns="http://www.w3.org/2000/svg">
    <path d="M11.2302 24.3207L14.7526 26.3435V21.7777L24.3381 16.1716L20.8735 14.0332L11.2302 19.6971V24.3207Z" fill="#3B4550"></path>
    <path d="M20.8735 0.97168L28.8421 5.59527L7.8811 18.0212V28.7132L0.258911 24.263V12.993L20.8735 0.97168Z" fill="#64BC4F"></path>
    <path d="M26.4168 17.3855L22.8945 19.4083L26.9365 21.7779L26.8788 32.5855L30.4012 30.5627V19.6973L26.4168 17.3855Z" fill="#3B4550"></path>
    <path d="M41.6612 36.8622L33.6925 41.6014V17.8477L24.0493 12.1838L32.1335 7.50244L41.6612 13.0507V36.8622Z" fill="#64BC4F"></path>
    <path d="M24.8578 33.857V29.9269L20.8157 32.2965L11.2302 26.6904V30.6205L20.8734 36.2266L24.8578 33.857Z" fill="#3B4550"></path>
    <path d="M0.258911 37.0355V28.2507L20.8735 40.0409L30.3435 34.377L30.4012 43.5086L21.1045 48.9991L0.258911 37.0355Z" fill="#64BC4F"></path>
</svg>