<?xml version="1.0" standalone="no"?>
<!DOCTYPE svg PUBLIC "-//W3C//DTD SVG 20010904//EN"
 "http://www.w3.org/TR/2001/REC-SVG-20010904/DTD/svg10.dtd">
<svg version="1.0" xmlns="http://www.w3.org/2000/svg"
 width="700.000000pt" height="700.000000pt" viewBox="0 0 700.000000 700.000000"
 preserveAspectRatio="xMidYMid meet">
<metadata>
Created by potrace 1.14, written by Peter Selinger 2001-2017
</metadata>
<g transform="translate(0.000000,700.000000) scale(0.100000,-0.100000)"
fill="#000000" stroke="none">
<path d="M2821 6192 c-23 -20 -38 -57 -241 -592 -9 -25 -77 -200 -150 -390
-73 -190 -143 -372 -155 -405 -45 -119 -415 -1083 -470 -1225 -44 -112 -47
-146 -16 -172 22 -17 48 -18 392 -18 434 0 395 -12 454 145 21 55 43 114 50
130 7 17 59 149 115 295 56 146 117 303 135 350 18 47 72 186 120 310 107 277
214 552 267 687 41 105 55 127 75 115 6 -4 48 -104 92 -222 45 -118 95 -249
111 -290 16 -41 101 -264 189 -495 358 -943 563 -1483 582 -1535 23 -61 31
-82 48 -123 6 -15 11 -30 11 -32 0 -3 -437 -5 -970 -5 -911 0 -972 -1 -989
-17 -26 -24 -251 -484 -251 -512 0 -12 10 -32 23 -44 l22 -22 991 0 c844 1
995 3 1009 15 10 8 64 108 120 221 l103 207 15 -36 c32 -78 194 -501 282 -737
27 -72 174 -459 215 -565 47 -122 76 -199 114 -300 20 -52 46 -103 57 -113 19
-15 54 -17 403 -17 400 0 400 0 424 44 10 20 -5 70 -88 296 -17 47 -38 105
-46 130 -25 72 -115 323 -124 345 -5 11 -20 54 -35 95 -50 142 -223 625 -238
665 -9 22 -38 103 -66 180 -27 77 -199 556 -381 1065 -183 509 -352 981 -377
1050 -24 69 -64 181 -89 250 -25 69 -57 157 -71 195 -13 39 -33 93 -43 120
-10 28 -30 84 -45 125 -15 41 -35 98 -45 125 -10 28 -41 113 -69 190 -91 257
-142 400 -158 445 -9 25 -26 55 -39 66 l-23 22 -610 0 c-556 0 -613 -1 -630
-16z"/>
</g>
</svg>
