<svg xmlns="http://www.w3.org/2000/svg">
  <defs>
    <symbol id="email" viewBox="0 0 512 512">
      <path d="M64 112c-8.8 0-16 7.2-16 16v22.1L220.5 291.7c20.7 17 50.4 17 71.1 0L464 150.1V128c0-8.8-7.2-16-16-16H64zM48 212.2V384c0 8.8 7.2 16 16 16H448c8.8 0 16-7.2 16-16V212.2L322 328.8c-38.4 31.5-93.7 31.5-132 0L48 212.2zM0 128C0 92.7 28.7 64 64 64H448c35.3 0 64 28.7 64 64V384c0 35.3-28.7 64-64 64H64c-35.3 0-64-28.7-64-64V128z"/>
    </symbol>
    <symbol id="github" viewBox="0 0 496 512">
      <path d="M165.9 397.4c0 2-2.3 3.6-5.2 3.6-3.3 .3-5.6-1.3-5.6-3.6 0-2 2.3-3.6 5.2-3.6 3-.3 5.6 1.3 5.6 3.6zm-31.1-4.5c-.7 2 1.3 4.3 4.3 4.9 2.6 1 5.6 0 6.2-2s-1.3-4.3-4.3-5.2c-2.6-.7-5.5 .3-6.2 2.3zm44.2-1.7c-2.9 .7-4.9 2.6-4.6 4.9 .3 2 2.9 3.3 5.9 2.6 2.9-.7 4.9-2.6 4.6-4.6-.3-1.9-3-3.2-5.9-2.9zM244.8 8C106.1 8 0 113.3 0 252c0 110.9 69.8 205.8 169.5 239.2 12.8 2.3 17.3-5.6 17.3-12.1 0-6.2-.3-40.4-.3-61.4 0 0-70 15-84.7-29.8 0 0-11.4-29.1-27.8-36.6 0 0-22.9-15.7 1.6-15.4 0 0 24.9 2 38.6 25.8 21.9 38.6 58.6 27.5 72.9 20.9 2.3-16 8.8-27.1 16-33.7-55.9-6.2-112.3-14.3-112.3-110.5 0-27.5 7.6-41.3 23.6-58.9-2.6-6.5-11.1-33.3 2.6-67.9 20.9-6.5 69 27 69 27 20-5.6 41.5-8.5 62.8-8.5s42.8 2.9 62.8 8.5c0 0 48.1-33.6 69-27 13.7 34.7 5.2 61.4 2.6 67.9 16 17.7 25.8 31.5 25.8 58.9 0 96.5-58.9 104.2-114.8 110.5 9.2 7.9 17 22.9 17 46.4 0 33.7-.3 75.4-.3 83.6 0 6.5 4.6 14.4 17.3 12.1C428.2 457.8 496 362.9 496 252 496 113.3 383.5 8 244.8 8zM97.2 352.9c-1.3 1-1 3.3 .7 5.2 1.6 1.6 3.9 2.3 5.2 1 1.3-1 1-3.3-.7-5.2-1.6-1.6-3.9-2.3-5.2-1zm-10.8-8.1c-.7 1.3 .3 2.9 2.3 3.9 1.6 1 3.6 .7 4.3-.7 .7-1.3-.3-2.9-2.3-3.9-2-.6-3.6-.3-4.3 .7zm32.4 35.6c-1.6 1.3-1 4.3 1.3 6.2 2.3 2.3 5.2 2.6 6.5 1 1.3-1.3 .7-4.3-1.3-6.2-2.2-2.3-5.2-2.6-6.5-1zm-11.4-14.7c-1.6 1-1.6 3.6 0 5.9 1.6 2.3 4.3 3.3 5.6 2.3 1.6-1.3 1.6-3.9 0-6.2-1.4-2.3-4-3.3-5.6-2z"/>
    </symbol>
    <symbol id="linkedin" viewBox="0 0 448 512">
      <path d="M416 32H31.9C14.3 32 0 46.5 0 64.3v383.4C0 465.5 14.3 480 31.9 480H416c17.6 0 32-14.5 32-32.3V64.3c0-17.8-14.4-32.3-32-32.3zM135.4 416H69V202.2h66.5V416zm-33.2-243c-21.3 0-38.5-17.3-38.5-38.5S80.9 96 102.2 96c21.2 0 38.5 17.3 38.5 38.5 0 21.3-17.2 38.5-38.5 38.5zm282.1 243h-66.4V312c0-24.8-.5-56.7-34.5-56.7-34.6 0-39.9 27-39.9 54.9V416h-66.4V202.2h63.7v29.2h.9c8.9-16.8 30.6-34.5 62.9-34.5 67.2 0 79.7 44.3 79.7 101.9V416z"/>
    </symbol>
    <symbol id="website" viewBox="0 0 512 512">
      <path
        d="M256,0C114.615,0,0,114.615,0,256s114.615,256,256,256s256-114.615,256-256S397.385,0,256,0z M418.275,146h-46.667  c-5.365-22.513-12.324-43.213-20.587-61.514c15.786,8.776,30.449,19.797,43.572,32.921C403.463,126.277,411.367,135.854,418.275,146  z M452,256c0,17.108-2.191,33.877-6.414,50h-64.034c1.601-16.172,2.448-32.887,2.448-50s-0.847-33.828-2.448-50h64.034  C449.809,222.123,452,238.892,452,256z M256,452c-5.2,0-21.048-10.221-36.844-41.813c-6.543-13.087-12.158-27.994-16.752-44.187  h107.191c-4.594,16.192-10.208,31.1-16.752,44.187C277.048,441.779,261.2,452,256,452z M190.813,306  c-1.847-16.247-2.813-33.029-2.813-50s0.966-33.753,2.813-50h130.374c1.847,16.247,2.813,33.029,2.813,50s-0.966,33.753-2.813,50  H190.813z M60,256c0-17.108,2.191-33.877,6.414-50h64.034c-1.601,16.172-2.448,32.887-2.448,50s0.847,33.828,2.448,50H66.414  C62.191,289.877,60,273.108,60,256z M256,60c5.2,0,21.048,10.221,36.844,41.813c6.543,13.087,12.158,27.994,16.752,44.187H202.404  c4.594-16.192,10.208-31.1,16.752-44.187C234.952,70.221,250.8,60,256,60z M160.979,84.486c-8.264,18.301-15.222,39-20.587,61.514  H93.725c6.909-10.146,14.812-19.723,23.682-28.593C130.531,104.283,145.193,93.262,160.979,84.486z M93.725,366h46.667  c5.365,22.513,12.324,43.213,20.587,61.514c-15.786-8.776-30.449-19.797-43.572-32.921C108.537,385.723,100.633,376.146,93.725,366z   M351.021,427.514c8.264-18.301,15.222-39,20.587-61.514h46.667c-6.909,10.146-14.812,19.723-23.682,28.593  C381.469,407.717,366.807,418.738,351.021,427.514z" />
    </symbol>
</defs>
</svg>