  0
SECTION
  2
HEADER
  9
$ANGBASE
  50
0.0
  9
$ANGDIR
  70
1
  9
$MEASUREMENT
  70
0
  0
ENDSEC
  0
SECTION
  2
TABLES
  0
TABLE
  2
LTYPE
  70
4
  0
LTYPE
  5
40F
  2
CONTINUOUS
  70
0
  3
Solid line
  72
65
  73
0
  40
0.0
  0
LTYPE
  5
410
  2
DASHDOT
 70
0
  3
Dash Dot ____ _ ____ _
 72
65
 73
4
 40
2.0
 49
1.25
 49
-0.25
 49
0.25
 49
-0.25
  0
LTYPE
  5
411
  2
DASHED
 70
0
  3
Dashed __ __ __ __ __
 72
65
 73
2
 40
0.75
 49
0.5
 49
-0.25
  0
LTYPE
  5
43B
  2
DOTTED
 70
0
  3
Dotted .  .  .  .
 72
65
 73
2
 40
0.2
 49
0.0
 49
-0.2
  0
ENDTAB
  0
TABLE
  2
STYLE
  70
4
  0
STYLE
  2
KICAD
  70
0
  40
0
  41
1
  42
1
  50
0
  71
0
  3
isocp.shx
  0
STYLE
  2
KICADB
  70
0
  40
0
  41
1
  42
1
  50
0
  71
0
  3
isocp.shx
  0
STYLE
  2
KICADI
  70
0
  40
0
  41
1
  42
1
  50
15
  71
0
  3
isocp.shx
  0
STYLE
  2
KICADBI
  70
0
  40
0
  41
1
  42
1
  50
15
  71
0
  3
isocp.shx
  0
ENDTAB
  0
TABLE
  2
LAYER
  70
1
  0
LAYER
  2
BLACK
  70
0
  62
7
  6
CONTINUOUS
  0
ENDTAB
  0
ENDSEC
  0
SECTION
  2
ENTITIES
0
LINE
8
BLACK
6
CONTINUOUS
10
7.6070525196850394
20
-2.2344018110236221
11
7.6081178740157478
21
-2.2354671653543305
0
LINE
8
BLACK
6
CONTINUOUS
10
7.6081178740157478
20
-2.2354671653543305
11
7.6082677165354333
21
-2.4251968503937009
0
LINE
8
BLACK
6
CONTINUOUS
10
7.6082677165354333
20
-2.4251968503937009
11
7.6081178740157478
21
-2.4259501574803148
0
LINE
8
BLACK
6
CONTINUOUS
10
7.6081178740157478
20
-2.4259501574803148
11
7.6070525196850394
21
-2.4270155118110237
0
LINE
8
BLACK
6
CONTINUOUS
10
7.6070525196850394
20
-2.4270155118110237
11
6.3149606299212593
21
-2.4271653543307088
0
LINE
8
BLACK
6
CONTINUOUS
10
6.3149606299212593
20
-2.4271653543307088
11
6.3142073228346458
21
-2.4270155118110237
0
LINE
8
BLACK
6
CONTINUOUS
10
6.3142073228346458
20
-2.4270155118110237
11
6.3131419685039365
21
-2.4259501574803148
0
LINE
8
BLACK
6
CONTINUOUS
10
6.3131419685039365
20
-2.4259501574803148
11
6.3129921259842519
21
-2.2362204724409449
0
LINE
8
BLACK
6
CONTINUOUS
10
6.3129921259842519
20
-2.2362204724409449
11
6.3131419685039365
21
-2.2354671653543305
0
LINE
8
BLACK
6
CONTINUOUS
10
6.3131419685039365
20
-2.2354671653543305
11
6.3142073228346458
21
-2.2344018110236221
0
LINE
8
BLACK
6
CONTINUOUS
10
6.3142073228346458
20
-2.2344018110236221
11
7.606299212598425
21
-2.234251968503937
0
LINE
8
BLACK
6
CONTINUOUS
10
7.606299212598425
20
-2.234251968503937
11
7.6070525196850394
21
-2.2344018110236221
0
LINE
8
BLACK
6
CONTINUOUS
10
6.3167814173228347
20
-2.2381887401574803
11
6.3169276771653537
21
-2.4233778346456694
0
LINE
8
BLACK
6
CONTINUOUS
10
6.3169276771653537
20
-2.4233778346456694
11
7.6044783858267717
21
-2.4232285433070864
0
LINE
8
BLACK
6
CONTINUOUS
10
7.6044783858267717
20
-2.4232285433070864
11
7.6043321259842518
21
-2.2380394488188977
0
LINE
8
BLACK
6
CONTINUOUS
10
7.6043321259842518
20
-2.2380394488188977
11
6.3167814173228347
21
-2.2381887401574803
0
LINE
8
BLACK
6
CONTINUOUS
10
10.3944540944881894
20
-2.2344018110236221
11
10.3955194488188969
21
-2.2354671653543305
0
LINE
8
BLACK
6
CONTINUOUS
10
10.3955194488188969
20
-2.2354671653543305
11
10.3956692913385833
21
-2.4251968503937009
0
LINE
8
BLACK
6
CONTINUOUS
10
10.3956692913385833
20
-2.4251968503937009
11
10.3955194488188969
21
-2.4259501574803148
0
LINE
8
BLACK
6
CONTINUOUS
10
10.3955194488188969
20
-2.4259501574803148
11
10.3944540944881894
21
-2.4270155118110237
0
LINE
8
BLACK
6
CONTINUOUS
10
10.3944540944881894
20
-2.4270155118110237
11
9.1023622047244093
21
-2.4271653543307088
0
LINE
8
BLACK
6
CONTINUOUS
10
9.1023622047244093
20
-2.4271653543307088
11
9.1016088976377958
21
-2.4270155118110237
0
LINE
8
BLACK
6
CONTINUOUS
10
9.1016088976377958
20
-2.4270155118110237
11
9.1005435433070865
21
-2.4259501574803148
0
LINE
8
BLACK
6
CONTINUOUS
10
9.1005435433070865
20
-2.4259501574803148
11
9.1003937007874018
21
-2.2362204724409449
0
LINE
8
BLACK
6
CONTINUOUS
10
9.1003937007874018
20
-2.2362204724409449
11
9.1005435433070865
21
-2.2354671653543305
0
LINE
8
BLACK
6
CONTINUOUS
10
9.1005435433070865
20
-2.2354671653543305
11
9.1016088976377958
21
-2.2344018110236221
0
LINE
8
BLACK
6
CONTINUOUS
10
9.1016088976377958
20
-2.2344018110236221
11
10.3937007874015741
21
-2.234251968503937
0
LINE
8
BLACK
6
CONTINUOUS
10
10.3937007874015741
20
-2.234251968503937
11
10.3944540944881894
21
-2.2344018110236221
0
LINE
8
BLACK
6
CONTINUOUS
10
9.1041829921259847
20
-2.2381887401574803
11
9.1043292519685028
21
-2.4233778346456694
0
LINE
8
BLACK
6
CONTINUOUS
10
9.1043292519685028
20
-2.4233778346456694
11
10.3918799606299217
21
-2.4232285433070864
0
LINE
8
BLACK
6
CONTINUOUS
10
10.3918799606299217
20
-2.4232285433070864
11
10.3917337007874018
21
-2.2380394488188977
0
LINE
8
BLACK
6
CONTINUOUS
10
10.3917337007874018
20
-2.2380394488188977
11
9.1041829921259847
21
-2.2381887401574803
0
LINE
8
BLACK
6
CONTINUOUS
10
9.008627322834645
20
-2.2304648031496064
11
9.0096926771653543
21
-2.2315301574803148
0
LINE
8
BLACK
6
CONTINUOUS
10
9.0096926771653543
20
-2.2315301574803148
11
9.0098425196850389
21
-2.4212598425196852
0
LINE
8
BLACK
6
CONTINUOUS
10
9.0098425196850389
20
-2.4212598425196852
11
9.0096926771653543
21
-2.4220131496062991
0
LINE
8
BLACK
6
CONTINUOUS
10
9.0096926771653543
20
-2.4220131496062991
11
9.008627322834645
21
-2.423078503937008
0
LINE
8
BLACK
6
CONTINUOUS
10
9.008627322834645
20
-2.423078503937008
11
7.7165354330708658
21
-2.423228346456693
0
LINE
8
BLACK
6
CONTINUOUS
10
7.7165354330708658
20
-2.423228346456693
11
7.7157821259842514
21
-2.423078503937008
0
LINE
8
BLACK
6
CONTINUOUS
10
7.7157821259842514
20
-2.423078503937008
11
7.714716771653543
21
-2.4220131496062991
0
LINE
8
BLACK
6
CONTINUOUS
10
7.714716771653543
20
-2.4220131496062991
11
7.7145669291338583
21
-2.2322834645669292
0
LINE
8
BLACK
6
CONTINUOUS
10
7.7145669291338583
20
-2.2322834645669292
11
7.714716771653543
21
-2.2315301574803148
0
LINE
8
BLACK
6
CONTINUOUS
10
7.714716771653543
20
-2.2315301574803148
11
7.7157821259842514
21
-2.2304648031496064
0
LINE
8
BLACK
6
CONTINUOUS
10
7.7157821259842514
20
-2.2304648031496064
11
9.0078740157480315
21
-2.2303149606299213
0
LINE
8
BLACK
6
CONTINUOUS
10
9.0078740157480315
20
-2.2303149606299213
11
9.008627322834645
21
-2.2304648031496064
0
LINE
8
BLACK
6
CONTINUOUS
10
7.7183562204724412
20
-2.2342517322834645
11
7.7185024803149602
21
-2.4194408267716536
0
LINE
8
BLACK
6
CONTINUOUS
10
7.7185024803149602
20
-2.4194408267716536
11
9.0060531889763773
21
-2.4192915354330706
0
LINE
8
BLACK
6
CONTINUOUS
10
9.0060531889763773
20
-2.4192915354330706
11
9.0059069291338574
21
-2.234102440944882
0
LINE
8
BLACK
6
CONTINUOUS
10
9.0059069291338574
20
-2.234102440944882
11
7.7183562204724412
21
-2.2342517322834645
0
LINE
8
BLACK
6
CONTINUOUS
10
0.7854850393700787
20
-1.5909890157480315
11
0.7868735039370078
21
-1.591440157480315
0
LINE
8
BLACK
6
CONTINUOUS
10
0.7868735039370078
20
-1.591440157480315
11
0.7876011811023622
21
-1.5924417716535433
0
LINE
8
BLACK
6
CONTINUOUS
10
0.7876011811023622
20
-1.5924417716535433
11
2.3464474409448819
21
-1.592376220472441
0
LINE
8
BLACK
6
CONTINUOUS
10
2.3464474409448819
20
-1.592376220472441
11
2.3468240944881891
21
-1.5924511417322835
0
LINE
8
BLACK
6
CONTINUOUS
10
2.3468240944881891
20
-1.5924511417322835
11
10.2336518503937004
21
-1.5931970866141731
0
LINE
8
BLACK
6
CONTINUOUS
10
10.2336518503937004
20
-1.5931970866141731
11
10.234028031496063
21
-1.5932719291338582
0
LINE
8
BLACK
6
CONTINUOUS
10
10.234028031496063
20
-1.5932719291338582
11
10.8792815748031497
21
-1.5932703937007873
0
LINE
8
BLACK
6
CONTINUOUS
10
10.8792815748031497
20
-1.5932703937007873
11
10.879955314960629
21
-1.5923433858267717
0
LINE
8
BLACK
6
CONTINUOUS
10
10.879955314960629
20
-1.5923433858267717
11
10.881343818897637
21
-1.5918924409448818
0
LINE
8
BLACK
6
CONTINUOUS
10
10.881343818897637
20
-1.5918924409448818
11
10.8939314960629918
21
-1.5925536614173228
0
LINE
8
BLACK
6
CONTINUOUS
10
10.8939314960629918
20
-1.5925536614173228
11
10.9063811811023612
21
-1.5945264566929134
0
LINE
8
BLACK
6
CONTINUOUS
10
10.9063811811023612
20
-1.5945264566929134
11
10.9185565748031497
21
-1.5977892913385827
0
LINE
8
BLACK
6
CONTINUOUS
10
10.9185565748031497
20
-1.5977892913385827
11
10.9303244094488186
21
-1.6023064173228345
0
LINE
8
BLACK
6
CONTINUOUS
10
10.9303244094488186
20
-1.6023064173228345
11
10.9415558661417318
21
-1.6080283858267717
0
LINE
8
BLACK
6
CONTINUOUS
10
10.9415558661417318
20
-1.6080283858267717
11
10.952127992125984
21
-1.614892559055118
0
LINE
8
BLACK
6
CONTINUOUS
10
10.952127992125984
20
-1.614892559055118
11
10.9619250393700778
21
-1.6228237795275591
0
LINE
8
BLACK
6
CONTINUOUS
10
10.9619250393700778
20
-1.6228237795275591
11
10.9708397244094478
21
-1.6317352362204725
0
LINE
8
BLACK
6
CONTINUOUS
10
10.9708397244094478
20
-1.6317352362204725
11
10.9787745275590556
21
-1.6415294094488189
0
LINE
8
BLACK
6
CONTINUOUS
10
10.9787745275590556
20
-1.6415294094488189
11
10.9856425590551172
21
-1.6520990157480315
0
LINE
8
BLACK
6
CONTINUOUS
10
10.9856425590551172
20
-1.6520990157480315
11
10.9913686220472435
21
-1.6633283858267716
0
LINE
8
BLACK
6
CONTINUOUS
10
10.9913686220472435
20
-1.6633283858267716
11
10.995890039370078
21
-1.6750945669291337
0
LINE
8
BLACK
6
CONTINUOUS
10
10.995890039370078
20
-1.6750945669291337
11
10.9991573228346446
21
-1.6872687795275589
0
LINE
8
BLACK
6
CONTINUOUS
10
10.9991573228346446
20
-1.6872687795275589
11
11.0011346456692909
21
-1.6997177165354331
0
LINE
8
BLACK
6
CONTINUOUS
10
11.0011346456692909
20
-1.6997177165354331
11
11.0018004724409444
21
-1.712305157480315
0
LINE
8
BLACK
6
CONTINUOUS
10
11.0018004724409444
20
-1.712305157480315
11
11.0018009055118107
21
-1.712305157480315
0
LINE
8
BLACK
6
CONTINUOUS
10
11.0018009055118107
20
-1.712305157480315
11
11.0016213779527554
21
-1.7128585039370079
0
LINE
8
BLACK
6
CONTINUOUS
10
11.0016213779527554
20
-1.7128585039370079
11
11.0037109055118112
21
-5.7881878740157475
0
LINE
8
BLACK
6
CONTINUOUS
10
11.0037109055118112
20
-5.7881878740157475
11
11.0037107480314962
21
-5.7881885433070863
0
LINE
8
BLACK
6
CONTINUOUS
10
11.0037107480314962
20
-5.7881885433070863
11
11.0037109055118112
21
-5.7881889763779526
0
LINE
8
BLACK
6
CONTINUOUS
10
11.0037109055118112
20
-5.7881889763779526
11
11.0030509448818901
21
-5.8007817322834647
0
LINE
8
BLACK
6
CONTINUOUS
10
11.0030509448818901
20
-5.8007817322834647
11
11.0010782677165349
21
-5.8132364960629923
0
LINE
8
BLACK
6
CONTINUOUS
10
11.0010782677165349
20
-5.8132364960629923
11
10.9978145275590542
21
-5.8254168110236222
0
LINE
8
BLACK
6
CONTINUOUS
10
10.9978145275590542
20
-5.8254168110236222
11
10.9932954724409448
21
-5.8371892519685042
0
LINE
8
BLACK
6
CONTINUOUS
10
10.9932954724409448
20
-5.8371892519685042
11
10.9875705905511811
21
-5.8484248425196848
0
LINE
8
BLACK
6
CONTINUOUS
10
10.9875705905511811
20
-5.8484248425196848
11
10.9807026377952752
21
-5.859000472440945
0
LINE
8
BLACK
6
CONTINUOUS
10
10.9807026377952752
20
-5.859000472440945
11
10.9727668503937004
21
-5.8688002362204719
0
LINE
8
BLACK
6
CONTINUOUS
10
10.9727668503937004
20
-5.8688002362204719
11
10.9638501181102352
21
-5.877716811023622
0
LINE
8
BLACK
6
CONTINUOUS
10
10.9638501181102352
20
-5.877716811023622
11
10.954050236220473
21
-5.8856524803149606
0
LINE
8
BLACK
6
CONTINUOUS
10
10.954050236220473
20
-5.8856524803149606
11
10.9434745275590544
21
-5.8925202755905515
0
LINE
8
BLACK
6
CONTINUOUS
10
10.9434745275590544
20
-5.8925202755905515
11
10.9322388582677164
21
-5.8982450000000002
0
LINE
8
BLACK
6
CONTINUOUS
10
10.9322388582677164
20
-5.8982450000000002
11
10.9204663385826777
21
-5.9027638976377954
0
LINE
8
BLACK
6
CONTINUOUS
10
10.9204663385826777
20
-5.9027638976377954
11
10.9082859842519682
21
-5.9060274803149602
0
LINE
8
BLACK
6
CONTINUOUS
10
10.9082859842519682
20
-5.9060274803149602
11
10.8958311811023627
21
-5.9079999606299207
0
LINE
8
BLACK
6
CONTINUOUS
10
10.8958311811023627
20
-5.9079999606299207
11
10.8832384251968506
21
-5.908659724409449
0
LINE
8
BLACK
6
CONTINUOUS
10
10.8832384251968506
20
-5.908659724409449
11
10.8832384251968506
21
-5.9086614173228345
0
LINE
8
BLACK
6
CONTINUOUS
10
10.8832384251968506
20
-5.9086614173228345
11
10.8818499606299213
21
-5.9082102755905508
0
LINE
8
BLACK
6
CONTINUOUS
10
10.8818499606299213
20
-5.9082102755905508
11
10.8811222047244094
21
-5.9072085433070862
0
LINE
8
BLACK
6
CONTINUOUS
10
10.8811222047244094
20
-5.9072085433070862
11
2.4530382283464567
21
-5.9072834251968507
0
LINE
8
BLACK
6
CONTINUOUS
10
2.4530382283464567
20
-5.9072834251968507
11
2.404957992125984
21
-5.9526335433070861
0
LINE
8
BLACK
6
CONTINUOUS
10
2.404957992125984
20
-5.9526335433070861
11
2.9251968503937009
21
-5.95255905511811
0
LINE
8
BLACK
6
CONTINUOUS
10
2.9251968503937009
20
-5.95255905511811
11
2.9255735039370077
21
-5.9526339763779523
0
LINE
8
BLACK
6
CONTINUOUS
10
2.9255735039370077
20
-5.9526339763779523
11
2.9261061811023623
21
-5.953166653543307
0
LINE
8
BLACK
6
CONTINUOUS
10
2.9261061811023623
20
-5.953166653543307
11
2.9261811023622046
21
-6.1267716535433072
0
LINE
8
BLACK
6
CONTINUOUS
10
2.9261811023622046
20
-6.1267716535433072
11
2.9261061811023623
21
-6.127148307086614
0
LINE
8
BLACK
6
CONTINUOUS
10
2.9261061811023623
20
-6.127148307086614
11
2.9255735039370077
21
-6.1276809842519686
0
LINE
8
BLACK
6
CONTINUOUS
10
2.9255735039370077
20
-6.1276809842519686
11
1.6574803149606299
21
-6.1277559055118109
0
LINE
8
BLACK
6
CONTINUOUS
10
1.6574803149606299
20
-6.1277559055118109
11
1.6571036614173229
21
-6.1276809842519686
0
LINE
8
BLACK
6
CONTINUOUS
10
1.6571036614173229
20
-6.1276809842519686
11
1.6565709842519685
21
-6.127148307086614
0
LINE
8
BLACK
6
CONTINUOUS
10
1.6565709842519685
20
-6.127148307086614
11
1.6564960629921259
21
-5.9535433070866137
0
LINE
8
BLACK
6
CONTINUOUS
10
1.6564960629921259
20
-5.9535433070866137
11
1.6565709842519685
21
-5.953166653543307
0
LINE
8
BLACK
6
CONTINUOUS
10
1.6565709842519685
20
-5.953166653543307
11
1.6571036614173229
21
-5.9526339763779523
0
LINE
8
BLACK
6
CONTINUOUS
10
1.6571036614173229
20
-5.9526339763779523
11
2.2997887007874014
21
-5.9525593307086613
0
LINE
8
BLACK
6
CONTINUOUS
10
2.2997887007874014
20
-5.9525593307086613
11
2.2514990944881887
21
-5.9072086220472437
0
LINE
8
BLACK
6
CONTINUOUS
10
2.2514990944881887
20
-5.9072086220472437
11
1.6574803149606299
21
-5.9072834645669294
0
LINE
8
BLACK
6
CONTINUOUS
10
1.6574803149606299
20
-5.9072834645669294
11
1.6571039763779527
21
-5.907208582677165
0
LINE
8
BLACK
6
CONTINUOUS
10
1.6571039763779527
20
-5.907208582677165
11
0.787546968503937
21
-5.9072832677165357
0
LINE
8
BLACK
6
CONTINUOUS
10
0.787546968503937
20
-5.9072832677165357
11
0.7868735039370078
21
-5.9082102755905508
0
LINE
8
BLACK
6
CONTINUOUS
10
0.7868735039370078
20
-5.9082102755905508
11
0.7854850393700787
21
-5.9086614173228345
0
LINE
8
BLACK
6
CONTINUOUS
10
0.7854850393700787
20
-5.9086614173228345
11
0.7728922440944882
21
-5.9080014566929133
0
LINE
8
BLACK
6
CONTINUOUS
10
0.7728922440944882
20
-5.9080014566929133
11
0.7604374015748031
21
-5.9060288188976378
0
LINE
8
BLACK
6
CONTINUOUS
10
0.7604374015748031
20
-5.9060288188976378
11
0.7482570078740157
21
-5.9027650787401571
0
LINE
8
BLACK
6
CONTINUOUS
10
0.7482570078740157
20
-5.9027650787401571
11
0.7364844881889764
21
-5.8982460236220469
0
LINE
8
BLACK
6
CONTINUOUS
10
0.7364844881889764
20
-5.8982460236220469
11
0.7252488188976378
21
-5.8925211811023619
0
LINE
8
BLACK
6
CONTINUOUS
10
0.7252488188976378
20
-5.8925211811023619
11
0.7146731102362205
21
-5.8856532283464569
0
LINE
8
BLACK
6
CONTINUOUS
10
0.7146731102362205
20
-5.8856532283464569
11
0.7048732283464567
21
-5.877717440944882
0
LINE
8
BLACK
6
CONTINUOUS
10
0.7048732283464567
20
-5.877717440944882
11
0.6959565748031495
21
-5.8688007874015744
0
LINE
8
BLACK
6
CONTINUOUS
10
0.6959565748031495
20
-5.8688007874015744
11
0.6880207874015748
21
-5.8590009055118113
0
LINE
8
BLACK
6
CONTINUOUS
10
0.6880207874015748
20
-5.8590009055118113
11
0.6811528346456692
21
-5.8484251968503935
0
LINE
8
BLACK
6
CONTINUOUS
10
0.6811528346456692
20
-5.8484251968503935
11
0.6754279921259843
21
-5.8371895275590546
0
LINE
8
BLACK
6
CONTINUOUS
10
0.6754279921259843
20
-5.8371895275590546
11
0.670908937007874
21
-5.825417007874016
0
LINE
8
BLACK
6
CONTINUOUS
10
0.670908937007874
20
-5.825417007874016
11
0.6676451968503937
21
-5.8132366141732286
0
LINE
8
BLACK
6
CONTINUOUS
10
0.6676451968503937
20
-5.8132366141732286
11
0.6656725590551181
21
-5.8007817716535435
0
LINE
8
BLACK
6
CONTINUOUS
10
0.6656725590551181
20
-5.8007817716535435
11
0.6650125984251969
21
-5.7881889763779526
0
LINE
8
BLACK
6
CONTINUOUS
10
0.6650125984251969
20
-5.7881889763779526
11
0.6651923228346457
21
-5.7876357874015749
0
LINE
8
BLACK
6
CONTINUOUS
10
0.6651923228346457
20
-5.7876357874015749
11
0.6650125984251969
21
-1.7114614566929134
0
LINE
8
BLACK
6
CONTINUOUS
10
0.6650125984251969
20
-1.7114614566929134
11
0.6656725590551181
21
-1.6988686614173227
0
LINE
8
BLACK
6
CONTINUOUS
10
0.6656725590551181
20
-1.6988686614173227
11
0.6676451968503937
21
-1.6864138188976379
0
LINE
8
BLACK
6
CONTINUOUS
10
0.6676451968503937
20
-1.6864138188976379
11
0.670908937007874
21
-1.6742334251968503
0
LINE
8
BLACK
6
CONTINUOUS
10
0.670908937007874
20
-1.6742334251968503
11
0.6754279921259843
21
-1.6624609055118109
0
LINE
8
BLACK
6
CONTINUOUS
10
0.6754279921259843
20
-1.6624609055118109
11
0.6811528346456692
21
-1.6512252362204725
0
LINE
8
BLACK
6
CONTINUOUS
10
0.6811528346456692
20
-1.6512252362204725
11
0.6880207874015748
21
-1.6406495275590551
0
LINE
8
BLACK
6
CONTINUOUS
10
0.6880207874015748
20
-1.6406495275590551
11
0.6959565354330709
21
-1.6308496456692914
0
LINE
8
BLACK
6
CONTINUOUS
10
0.6959565354330709
20
-1.6308496456692914
11
0.7048732283464567
21
-1.6219329527559054
0
LINE
8
BLACK
6
CONTINUOUS
10
0.7048732283464567
20
-1.6219329527559054
11
0.7146731102362205
21
-1.6139971653543306
0
LINE
8
BLACK
6
CONTINUOUS
10
0.7146731102362205
20
-1.6139971653543306
11
0.7252488188976378
21
-1.6071292125984251
0
LINE
8
BLACK
6
CONTINUOUS
10
0.7252488188976378
20
-1.6071292125984251
11
0.7364844881889764
21
-1.6014043700787401
0
LINE
8
BLACK
6
CONTINUOUS
10
0.7364844881889764
20
-1.6014043700787401
11
0.7482570078740157
21
-1.5968853149606299
0
LINE
8
BLACK
6
CONTINUOUS
10
0.7482570078740157
20
-1.5968853149606299
11
0.7604374015748031
21
-1.5936215748031495
0
LINE
8
BLACK
6
CONTINUOUS
10
0.7604374015748031
20
-1.5936215748031495
11
0.7728922440944882
21
-1.5916489370078739
0
LINE
8
BLACK
6
CONTINUOUS
10
0.7728922440944882
20
-1.5916489370078739
11
0.7854850393700787
21
-1.5909889763779528
0
LINE
8
BLACK
6
CONTINUOUS
10
0.7854850393700787
20
-1.5909889763779528
11
0.7854850393700787
21
-1.5909890157480315
0
LINE
8
BLACK
6
CONTINUOUS
10
0.7875468897637795
20
-1.5943353543307086
11
0.7868735039370078
21
-1.5952622834645669
0
LINE
8
BLACK
6
CONTINUOUS
10
0.7868735039370078
20
-1.5952622834645669
11
0.7854850393700787
21
-1.5957134251968503
0
LINE
8
BLACK
6
CONTINUOUS
10
0.7854850393700787
20
-1.5957134251968503
11
0.7854850393700787
21
-1.5957133858267716
0
LINE
8
BLACK
6
CONTINUOUS
10
0.7854850393700787
20
-1.5957133858267716
11
0.7789847637795275
21
-1.5957133858267716
0
LINE
8
BLACK
6
CONTINUOUS
10
0.7789847637795275
20
-1.5957133858267716
11
0.7660659842519685
21
-1.5971690157480314
0
LINE
8
BLACK
6
CONTINUOUS
10
0.7660659842519685
20
-1.5971690157480314
11
0.7533913779527559
21
-1.6000618897637795
0
LINE
8
BLACK
6
CONTINUOUS
10
0.7533913779527559
20
-1.6000618897637795
11
0.7411203937007874
21
-1.6043557086614173
0
LINE
8
BLACK
6
CONTINUOUS
10
0.7411203937007874
20
-1.6043557086614173
11
0.7294073228346456
21
-1.6099964173228347
0
LINE
8
BLACK
6
CONTINUOUS
10
0.7294073228346456
20
-1.6099964173228347
11
0.7183994488188976
21
-1.6169131496062992
0
LINE
8
BLACK
6
CONTINUOUS
10
0.7183994488188976
20
-1.6169131496062992
11
0.7082351968503937
21
-1.6250188582677165
0
LINE
8
BLACK
6
CONTINUOUS
10
0.7082351968503937
20
-1.6250188582677165
11
0.6990424409448819
21
-1.6342116141732284
0
LINE
8
BLACK
6
CONTINUOUS
10
0.6990424409448819
20
-1.6342116141732284
11
0.6909367322834645
21
-1.6443758267716535
0
LINE
8
BLACK
6
CONTINUOUS
10
0.6909367322834645
20
-1.6443758267716535
11
0.6840200393700787
21
-1.6553837007874015
0
LINE
8
BLACK
6
CONTINUOUS
10
0.6840200393700787
20
-1.6553837007874015
11
0.6783792913385827
21
-1.6670968110236219
0
LINE
8
BLACK
6
CONTINUOUS
10
0.6783792913385827
20
-1.6670968110236219
11
0.6740855118110236
21
-1.6793677952755905
0
LINE
8
BLACK
6
CONTINUOUS
10
0.6740855118110236
20
-1.6793677952755905
11
0.6711926377952756
21
-1.692042401574803
0
LINE
8
BLACK
6
CONTINUOUS
10
0.6711926377952756
20
-1.692042401574803
11
0.6697370078740157
21
-1.7049611811023622
0
LINE
8
BLACK
6
CONTINUOUS
10
0.6697370078740157
20
-1.7049611811023622
11
0.6697370078740157
21
-1.7114614566929134
0
LINE
8
BLACK
6
CONTINUOUS
10
0.6697370078740157
20
-1.7114614566929134
11
0.6695572440944881
21
-1.7120146062992125
0
LINE
8
BLACK
6
CONTINUOUS
10
0.6695572440944881
20
-1.7120146062992125
11
0.6697370078740157
21
-5.7881889763779526
0
LINE
8
BLACK
6
CONTINUOUS
10
0.6697370078740157
20
-5.7881889763779526
11
0.6697370078740157
21
-5.7946892519685038
0
LINE
8
BLACK
6
CONTINUOUS
10
0.6697370078740157
20
-5.7946892519685038
11
0.6711926377952756
21
-5.8076080314960628
0
LINE
8
BLACK
6
CONTINUOUS
10
0.6711926377952756
20
-5.8076080314960628
11
0.6740855118110236
21
-5.8202826377952759
0
LINE
8
BLACK
6
CONTINUOUS
10
0.6740855118110236
20
-5.8202826377952759
11
0.6783793307086614
21
-5.8325536220472438
0
LINE
8
BLACK
6
CONTINUOUS
10
0.6783793307086614
20
-5.8325536220472438
11
0.6840200393700787
21
-5.8442666929133855
0
LINE
8
BLACK
6
CONTINUOUS
10
0.6840200393700787
20
-5.8442666929133855
11
0.6909367322834645
21
-5.8552745669291335
0
LINE
8
BLACK
6
CONTINUOUS
10
0.6909367322834645
20
-5.8552745669291335
11
0.6990424409448819
21
-5.8654387795275591
0
LINE
8
BLACK
6
CONTINUOUS
10
0.6990424409448819
20
-5.8654387795275591
11
0.7082352362204725
21
-5.8746315748031499
0
LINE
8
BLACK
6
CONTINUOUS
10
0.7082352362204725
20
-5.8746315748031499
11
0.7183994488188976
21
-5.882737283464567
0
LINE
8
BLACK
6
CONTINUOUS
10
0.7183994488188976
20
-5.882737283464567
11
0.7294073228346456
21
-5.8896539763779527
0
LINE
8
BLACK
6
CONTINUOUS
10
0.7294073228346456
20
-5.8896539763779527
11
0.7411203937007874
21
-5.8952946850393699
0
LINE
8
BLACK
6
CONTINUOUS
10
0.7411203937007874
20
-5.8952946850393699
11
0.7533913779527559
21
-5.8995885039370082
0
LINE
8
BLACK
6
CONTINUOUS
10
0.7533913779527559
20
-5.8995885039370082
11
0.7660659842519685
21
-5.9024813779527561
0
LINE
8
BLACK
6
CONTINUOUS
10
0.7660659842519685
20
-5.9024813779527561
11
0.7789847637795275
21
-5.9039370078740152
0
LINE
8
BLACK
6
CONTINUOUS
10
0.7789847637795275
20
-5.9039370078740152
11
0.7854850393700787
21
-5.9039370078740152
0
LINE
8
BLACK
6
CONTINUOUS
10
0.7854850393700787
20
-5.9039370078740152
11
0.7868735039370078
21
-5.9043881496062989
0
LINE
8
BLACK
6
CONTINUOUS
10
0.7868735039370078
20
-5.9043881496062989
11
0.7876011023622047
21
-5.9053896456692909
0
LINE
8
BLACK
6
CONTINUOUS
10
0.7876011023622047
20
-5.9053896456692909
11
1.6574803149606299
21
-5.9053149606299211
0
LINE
8
BLACK
6
CONTINUOUS
10
1.6574803149606299
20
-5.9053149606299211
11
1.6578564566929133
21
-5.9053897637795272
0
LINE
8
BLACK
6
CONTINUOUS
10
1.6578564566929133
20
-5.9053897637795272
11
2.2519685039370079
21
-5.9053149606299211
0
LINE
8
BLACK
6
CONTINUOUS
10
2.2519685039370079
20
-5.9053149606299211
11
2.2522935433070868
21
-5.9053796062992125
0
LINE
8
BLACK
6
CONTINUOUS
10
2.2522935433070868
20
-5.9053796062992125
11
2.2523174409448816
21
-5.905378897637795
0
LINE
8
BLACK
6
CONTINUOUS
10
2.2523174409448816
20
-5.905378897637795
11
2.2523248031496061
21
-5.9053858267716537
0
LINE
8
BLACK
6
CONTINUOUS
10
2.2523248031496061
20
-5.9053858267716537
11
2.2523451574803151
21
-5.9053898818897634
0
LINE
8
BLACK
6
CONTINUOUS
10
2.2523451574803151
20
-5.9053898818897634
11
2.2525923622047244
21
-5.9056370866141732
0
LINE
8
BLACK
6
CONTINUOUS
10
2.2525923622047244
20
-5.9056370866141732
11
2.3028399212598423
21
-5.952826574803149
0
LINE
8
BLACK
6
CONTINUOUS
10
2.3028399212598423
20
-5.952826574803149
11
2.3030628740157479
21
-5.9531392913385828
0
LINE
8
BLACK
6
CONTINUOUS
10
2.3030628740157479
20
-5.9531392913385828
11
2.303063346456693
21
-5.9531553149606298
0
LINE
8
BLACK
6
CONTINUOUS
10
2.303063346456693
20
-5.9531553149606298
11
2.3030746850393702
21
-5.953166653543307
0
LINE
8
BLACK
6
CONTINUOUS
10
2.3030746850393702
20
-5.953166653543307
11
2.3030746850393702
21
-5.9535294094488185
0
LINE
8
BLACK
6
CONTINUOUS
10
2.3030746850393702
20
-5.9535294094488185
11
2.3030856692913386
21
-5.9538922440944884
0
LINE
8
BLACK
6
CONTINUOUS
10
2.3030856692913386
20
-5.9538922440944884
11
2.3030746850393702
21
-5.9539038976377947
0
LINE
8
BLACK
6
CONTINUOUS
10
2.3030746850393702
20
-5.9539038976377947
11
2.3030746850393702
21
-5.9539199606299213
0
LINE
8
BLACK
6
CONTINUOUS
10
2.3030746850393702
20
-5.9539199606299213
11
2.3028183858267717
21
-5.9541762204724407
0
LINE
8
BLACK
6
CONTINUOUS
10
2.3028183858267717
20
-5.9541762204724407
11
2.3025694094488189
21
-5.9544408267716538
0
LINE
8
BLACK
6
CONTINUOUS
10
2.3025694094488189
20
-5.9544408267716538
11
2.302553307086614
21
-5.9544412992125979
0
LINE
8
BLACK
6
CONTINUOUS
10
2.302553307086614
20
-5.9544412992125979
11
2.3025420078740155
21
-5.9544526377952751
0
LINE
8
BLACK
6
CONTINUOUS
10
2.3025420078740155
20
-5.9544526377952751
11
2.3021778346456694
21
-5.9544526771653539
0
LINE
8
BLACK
6
CONTINUOUS
10
2.3021778346456694
20
-5.9544526771653539
11
2.3018164173228346
21
-5.9544636220472436
0
LINE
8
BLACK
6
CONTINUOUS
10
2.3018164173228346
20
-5.9544636220472436
11
2.3018048031496061
21
-5.9544527165354326
0
LINE
8
BLACK
6
CONTINUOUS
10
2.3018048031496061
20
-5.9544527165354326
11
1.6583901968503936
21
-5.9545274409448821
0
LINE
8
BLACK
6
CONTINUOUS
10
1.6583901968503936
20
-5.9545274409448821
11
1.6584641732283465
21
-6.1258622047244096
0
LINE
8
BLACK
6
CONTINUOUS
10
1.6584641732283465
20
-6.1258622047244096
11
2.9242869291338582
21
-6.1257874409448814
0
LINE
8
BLACK
6
CONTINUOUS
10
2.9242869291338582
20
-6.1257874409448814
11
2.9242129527559055
21
-5.9544527952755901
0
LINE
8
BLACK
6
CONTINUOUS
10
2.9242129527559055
20
-5.9544527952755901
11
2.4025590551181102
21
-5.9545275590551183
0
LINE
8
BLACK
6
CONTINUOUS
10
2.4025590551181102
20
-5.9545275590551183
11
2.402182401574803
21
-5.9544526377952751
0
LINE
8
BLACK
6
CONTINUOUS
10
2.402182401574803
20
-5.9544526377952751
11
2.4021710629921258
21
-5.9544412992125979
0
LINE
8
BLACK
6
CONTINUOUS
10
2.4021710629921258
20
-5.9544412992125979
11
2.4021550393700788
21
-5.9544408267716538
0
LINE
8
BLACK
6
CONTINUOUS
10
2.4021550393700788
20
-5.9544408267716538
11
2.4019062992125986
21
-5.9541765354330707
0
LINE
8
BLACK
6
CONTINUOUS
10
2.4019062992125986
20
-5.9541765354330707
11
2.4016497244094488
21
-5.9539199606299213
0
LINE
8
BLACK
6
CONTINUOUS
10
2.4016497244094488
20
-5.9539199606299213
11
2.4016497244094488
21
-5.9539038976377947
0
LINE
8
BLACK
6
CONTINUOUS
10
2.4016497244094488
20
-5.9539038976377947
11
2.4016387401574804
21
-5.9538922440944884
0
LINE
8
BLACK
6
CONTINUOUS
10
2.4016387401574804
20
-5.9538922440944884
11
2.4016497244094488
21
-5.9535294094488185
0
LINE
8
BLACK
6
CONTINUOUS
10
2.4016497244094488
20
-5.9535294094488185
11
2.4016497244094488
21
-5.953166653543307
0
LINE
8
BLACK
6
CONTINUOUS
10
2.4016497244094488
20
-5.953166653543307
11
2.4016610236220473
21
-5.9531553149606298
0
LINE
8
BLACK
6
CONTINUOUS
10
2.4016610236220473
20
-5.9531553149606298
11
2.4016615354330706
21
-5.9531392913385828
0
LINE
8
BLACK
6
CONTINUOUS
10
2.4016615354330706
20
-5.9531392913385828
11
2.4019353937007875
21
-5.9528809448818896
0
LINE
8
BLACK
6
CONTINUOUS
10
2.4019353937007875
20
-5.9528809448818896
11
2.402182401574803
21
-5.9526339763779523
0
LINE
8
BLACK
6
CONTINUOUS
10
2.402182401574803
20
-5.9526339763779523
11
2.4021972440944883
21
-5.9526339370078736
0
LINE
8
BLACK
6
CONTINUOUS
10
2.4021972440944883
20
-5.9526339370078736
11
2.4520813385826772
21
-5.9055824803149601
0
LINE
8
BLACK
6
CONTINUOUS
10
2.4520813385826772
20
-5.9055824803149601
11
2.4523623228346456
21
-5.905406771653543
0
LINE
8
BLACK
6
CONTINUOUS
10
2.4523623228346456
20
-5.905406771653543
11
2.4523792519685039
21
-5.9053898818897634
0
LINE
8
BLACK
6
CONTINUOUS
10
2.4523792519685039
20
-5.9053898818897634
11
2.4523893700787402
21
-5.9053898425196847
0
LINE
8
BLACK
6
CONTINUOUS
10
2.4523893700787402
20
-5.9053898425196847
11
2.4524069685039369
21
-5.905378897637795
0
LINE
8
BLACK
6
CONTINUOUS
10
2.4524069685039369
20
-5.905378897637795
11
2.4527696850393701
21
-5.9053898425196847
0
LINE
8
BLACK
6
CONTINUOUS
10
2.4527696850393701
20
-5.9053898425196847
11
10.881176574803149
21
-5.9053149606299211
0
LINE
8
BLACK
6
CONTINUOUS
10
10.881176574803149
20
-5.9053149606299211
11
10.8818500393700788
21
-5.9043881102362201
0
LINE
8
BLACK
6
CONTINUOUS
10
10.8818500393700788
20
-5.9043881102362201
11
10.8832385039370081
21
-5.9039370078740152
0
LINE
8
BLACK
6
CONTINUOUS
10
10.8832385039370081
20
-5.9039370078740152
11
10.8832385039370081
21
-5.9039353149606297
0
LINE
8
BLACK
6
CONTINUOUS
10
10.8832385039370081
20
-5.9039353149606297
11
10.8897387401574797
21
-5.9039353937007872
0
LINE
8
BLACK
6
CONTINUOUS
10
10.8897387401574797
20
-5.9039353937007872
11
10.9026574803149607
21
-5.902479960629921
0
LINE
8
BLACK
6
CONTINUOUS
10
10.9026574803149607
20
-5.902479960629921
11
10.9153320078740155
21
-5.8995872440944881
0
LINE
8
BLACK
6
CONTINUOUS
10
10.9153320078740155
20
-5.8995872440944881
11
10.9276029921259834
21
-5.8952936220472436
0
LINE
8
BLACK
6
CONTINUOUS
10
10.9276029921259834
20
-5.8952936220472436
11
10.9393160629921251
21
-5.8896530314960627
0
LINE
8
BLACK
6
CONTINUOUS
10
10.9393160629921251
20
-5.8896530314960627
11
10.9503239370078731
21
-5.8827364566929132
0
LINE
8
BLACK
6
CONTINUOUS
10
10.9503239370078731
20
-5.8827364566929132
11
10.9604881889763774
21
-5.8746309055118111
0
LINE
8
BLACK
6
CONTINUOUS
10
10.9604881889763774
20
-5.8746309055118111
11
10.9696809842519691
21
-5.8654382283464566
0
LINE
8
BLACK
6
CONTINUOUS
10
10.9696809842519691
20
-5.8654382283464566
11
10.9777866929133854
21
-5.8552741338582672
0
LINE
8
BLACK
6
CONTINUOUS
10
10.9777866929133854
20
-5.8552741338582672
11
10.9847034251968498
21
-5.8442663385826767
0
LINE
8
BLACK
6
CONTINUOUS
10
10.9847034251968498
20
-5.8442663385826767
11
10.990344133858267
21
-5.8325533464566925
0
LINE
8
BLACK
6
CONTINUOUS
10
10.990344133858267
20
-5.8325533464566925
11
10.9946379527559053
21
-5.8202824409448821
0
LINE
8
BLACK
6
CONTINUOUS
10
10.9946379527559053
20
-5.8202824409448821
11
10.9975308661417319
21
-5.8076079133858265
0
LINE
8
BLACK
6
CONTINUOUS
10
10.9975308661417319
20
-5.8076079133858265
11
10.9989864960629919
21
-5.7946892125984251
0
LINE
8
BLACK
6
CONTINUOUS
10
10.9989864960629919
20
-5.7946892125984251
11
10.9989864960629919
21
-5.7881889763779526
0
LINE
8
BLACK
6
CONTINUOUS
10
10.9989864960629919
20
-5.7881889763779526
11
10.9991659842519685
21
-5.7876365354330703
0
LINE
8
BLACK
6
CONTINUOUS
10
10.9991659842519685
20
-5.7876365354330703
11
10.9970764960629914
21
-1.7123075196850392
0
LINE
8
BLACK
6
CONTINUOUS
10
10.9970764960629914
20
-1.7123075196850392
11
10.9970760629921251
21
-1.7123075196850392
0
LINE
8
BLACK
6
CONTINUOUS
10
10.9970760629921251
20
-1.7123075196850392
11
10.9970729133858267
21
-1.7058098818897638
0
LINE
8
BLACK
6
CONTINUOUS
10
10.9970729133858267
20
-1.7058098818897638
11
10.9956119685039369
21
-1.6928969291338583
0
LINE
8
BLACK
6
CONTINUOUS
10
10.9956119685039369
20
-1.6928969291338583
11
10.9927150000000005
21
-1.680228622047244
0
LINE
8
BLACK
6
CONTINUOUS
10
10.9927150000000005
20
-1.680228622047244
11
10.9884184251968495
21
-1.6679641338582676
0
LINE
8
BLACK
6
CONTINUOUS
10
10.9884184251968495
20
-1.6679641338582676
11
10.9827761811023628
21
-1.6562575590551181
0
LINE
8
BLACK
6
CONTINUOUS
10
10.9827761811023628
20
-1.6562575590551181
11
10.9758592125984258
21
-1.6452559842519685
0
LINE
8
BLACK
6
CONTINUOUS
10
10.9758592125984258
20
-1.6452559842519685
11
10.9677544488188978
21
-1.6350976771653543
0
LINE
8
BLACK
6
CONTINUOUS
10
10.9677544488188978
20
-1.6350976771653543
11
10.9585637007874013
21
-1.6259102755905512
0
LINE
8
BLACK
6
CONTINUOUS
10
10.9585637007874013
20
-1.6259102755905512
11
10.9484024409448821
21
-1.6178092125984251
0
LINE
8
BLACK
6
CONTINUOUS
10
10.9484024409448821
20
-1.6178092125984251
11
10.9373983464566926
21
-1.6108962598425196
0
LINE
8
BLACK
6
CONTINUOUS
10
10.9373983464566926
20
-1.6108962598425196
11
10.9256897244094482
21
-1.6052583070866142
0
LINE
8
BLACK
6
CONTINUOUS
10
10.9256897244094482
20
-1.6052583070866142
11
10.9134236614173226
21
-1.6009662204724409
0
LINE
8
BLACK
6
CONTINUOUS
10
10.9134236614173226
20
-1.6009662204724409
11
10.9007542913385826
21
-1.5980738582677165
0
LINE
8
BLACK
6
CONTINUOUS
10
10.9007542913385826
20
-1.5980738582677165
11
10.8878408267716527
21
-1.5966175984251969
0
LINE
8
BLACK
6
CONTINUOUS
10
10.8878408267716527
20
-1.5966175984251969
11
10.881343188976377
21
-1.5966168503937008
0
LINE
8
BLACK
6
CONTINUOUS
10
10.881343188976377
20
-1.5966168503937008
11
10.8799547637795282
21
-1.5961655118110236
0
LINE
8
BLACK
6
CONTINUOUS
10
10.8799547637795282
20
-1.5961655118110236
11
10.8792273228346446
21
-1.5951640157480313
0
LINE
8
BLACK
6
CONTINUOUS
10
10.8792273228346446
20
-1.5951640157480313
11
10.2336516141732279
21
-1.595165590551181
0
LINE
8
BLACK
6
CONTINUOUS
10
10.2336516141732279
20
-1.595165590551181
11
10.2332749606299203
21
-1.5950906299212597
0
LINE
8
BLACK
6
CONTINUOUS
10
10.2332749606299203
20
-1.5950906299212597
11
2.3464473228346456
21
-1.5943447244094489
0
LINE
8
BLACK
6
CONTINUOUS
10
2.3464473228346456
20
-1.5943447244094489
11
2.346071062992126
21
-1.5942698031496063
0
LINE
8
BLACK
6
CONTINUOUS
10
2.346071062992126
20
-1.5942698031496063
11
0.7875468897637795
21
-1.5943353543307086
  0
ENDSEC
  0
EOF
